<svg width="346" height="346" viewBox="0 0 346 346" fill="none" xmlns="http://www.w3.org/2000/svg">
<path d="M121.359 259.5H54.0625C51.1948 259.5 48.4446 258.361 46.4169 256.333C44.3892 254.305 43.25 251.555 43.25 248.688V64.875H21.625C18.7573 64.875 16.0071 63.7358 13.9794 61.7081C11.9517 59.6804 10.8125 56.9302 10.8125 54.0625C10.8125 51.1948 11.9517 48.4446 13.9794 46.4169C16.0071 44.3892 18.7573 43.25 21.625 43.25H324.375C327.243 43.25 329.993 44.3892 332.021 46.4169C334.048 48.4446 335.188 51.1948 335.188 54.0625C335.188 56.9302 334.048 59.6804 332.021 61.7081C329.993 63.7358 327.243 64.875 324.375 64.875H302.75V248.688C302.75 251.555 301.611 254.305 299.583 256.333C297.555 258.361 294.805 259.5 291.938 259.5H224.77L262.225 324.375H237.27L199.815 259.5H146.315L108.86 324.375H83.905L121.359 259.5ZM281.125 64.875H64.875V237.875H281.125V64.875ZM115.78 180.655C114.775 181.661 113.581 182.458 112.268 183.002C110.955 183.546 109.547 183.826 108.125 183.826C106.703 183.826 105.295 183.546 103.982 183.002C102.669 182.458 101.475 181.661 100.47 180.655C99.4644 179.65 98.667 178.456 98.1229 177.143C97.5789 175.83 97.2988 174.422 97.2988 173C97.2988 171.578 97.5789 170.17 98.1229 168.857C98.667 167.544 99.4644 166.35 100.47 165.345L150.359 115.478L192.744 147.266L229.441 101.378C230.3 100.194 231.391 99.1964 232.646 98.4458C233.902 97.6953 235.297 97.2074 236.746 97.0116C238.196 96.8158 239.67 96.9162 241.08 97.3068C242.49 97.6973 243.806 98.3699 244.948 99.2837C246.09 100.198 247.035 101.334 247.726 102.623C248.416 103.913 248.838 105.329 248.965 106.787C249.092 108.244 248.922 109.712 248.466 111.102C248.009 112.491 247.275 113.774 246.309 114.872L196.528 177.13L152.391 144.022L115.78 180.634V180.655Z" fill="black"/>
</svg>
