<svg width="312" height="312" viewBox="0 0 312 312" fill="none" xmlns="http://www.w3.org/2000/svg">
<path d="M156 234L96.6225 150.15C86.9035 138.675 80.6446 124.675 78.5748 109.78C76.5049 94.8853 78.7094 79.7091 84.9313 66.0188C91.1532 52.3285 101.137 40.6876 113.719 32.4518C126.301 24.2161 140.964 19.7244 156 19.5C176.843 19.706 196.755 28.1638 211.374 43.021C225.994 57.8783 234.13 77.9239 234 98.7675C234.008 116.951 227.818 134.593 216.45 148.785L156 234ZM156 39C140.321 39.1801 125.353 45.5752 114.385 56.7811C103.417 67.9871 97.3439 83.0878 97.5 98.7675C97.5653 113.079 102.714 126.901 112.027 137.768L156 200.07L201.142 136.5C209.723 125.789 214.431 112.492 214.5 98.7675C214.656 83.0878 208.583 67.9871 197.615 56.7811C186.646 45.5752 171.679 39.1801 156 39Z" fill="black"/>
<path d="M156 107.25C166.77 107.25 175.5 98.5196 175.5 87.75C175.5 76.9804 166.77 68.25 156 68.25C145.23 68.25 136.5 76.9804 136.5 87.75C136.5 98.5196 145.23 107.25 156 107.25Z" fill="black"/>
<path d="M273 117H253.5V136.5H273V273H39V136.5H58.5V117H39C33.8283 117 28.8684 119.054 25.2114 122.711C21.5545 126.368 19.5 131.328 19.5 136.5V273C19.5 278.172 21.5545 283.132 25.2114 286.789C28.8684 290.446 33.8283 292.5 39 292.5H273C278.172 292.5 283.132 290.446 286.789 286.789C290.446 283.132 292.5 278.172 292.5 273V136.5C292.5 131.328 290.446 126.368 286.789 122.711C283.132 119.054 278.172 117 273 117Z" fill="black"/>
</svg>
