<svg width="316" height="316" viewBox="0 0 316 316" fill="none" xmlns="http://www.w3.org/2000/svg">
<path d="M41.6198 58.8418C56.894 43.5649 77.3804 34.6294 98.9685 33.8284C120.557 33.0274 141.649 40.4201 158.013 54.5231C174.363 40.4436 195.427 33.0592 216.989 33.8483C238.552 34.6374 259.02 43.5418 274.297 58.7787C289.574 74.0156 298.532 94.4606 299.377 116.021C300.223 137.581 292.893 158.664 278.857 175.051L176.618 277.619C171.92 282.318 165.621 285.068 158.981 285.317C152.342 285.566 145.854 283.296 140.817 278.962L139.369 277.632L37.1431 175.051C23.1139 158.678 15.7812 137.614 16.6112 116.069C17.4412 94.5242 26.3726 74.0864 41.6198 58.8418ZM60.2374 77.4595C49.4703 88.2296 43.2637 102.732 42.9057 117.957C42.5478 133.182 48.066 147.96 58.3151 159.224L60.2374 161.252L158 259.015L227.823 189.165L181.279 142.634L167.322 156.591C159.915 164.001 149.869 168.166 139.392 168.168C128.915 168.17 118.866 164.011 111.456 156.604C104.046 149.198 99.8814 139.151 99.8789 128.674C99.8765 118.197 104.036 108.148 111.443 100.738L139.119 73.0486C128.105 64.2582 114.318 59.6804 100.234 60.1364C86.149 60.5925 72.6877 66.0526 62.2651 75.5371L60.2374 77.4595ZM171.97 114.695C174.439 112.226 177.787 110.84 181.279 110.84C184.77 110.84 188.118 112.226 190.587 114.695L246.44 170.548L255.762 161.252C266.71 150.312 272.942 135.523 273.127 120.048C273.312 104.572 267.434 89.6389 256.75 78.4411C246.067 67.2433 231.426 60.6703 215.959 60.1276C200.492 59.5849 185.426 65.1157 173.984 75.5371L171.97 77.4595L130.073 119.356C127.791 121.636 126.426 124.676 126.237 127.897C126.047 131.117 127.047 134.296 129.046 136.828L130.073 137.973C132.354 140.256 135.393 141.621 138.614 141.81C141.835 142 145.013 141 147.546 139L148.691 137.973L171.97 114.695Z" fill="black"/>
</svg>
