<svg width="313" height="313" viewBox="0 0 313 313" fill="none" xmlns="http://www.w3.org/2000/svg">
<path d="M192.875 122.965C199.546 122.965 205.943 125.615 210.66 130.331C215.377 135.048 218.027 141.446 218.027 148.116V217.971C218.027 234.28 211.548 249.921 200.016 261.454C188.484 272.986 172.843 279.465 156.534 279.465C140.225 279.465 124.583 272.986 113.051 261.454C101.519 249.921 95.0402 234.28 95.0402 217.971V148.116C95.0402 141.446 97.6902 135.048 102.407 130.331C107.124 125.615 113.521 122.965 120.192 122.965H192.875ZM192.875 139.733H120.192C117.968 139.733 115.836 140.616 114.264 142.188C112.691 143.76 111.808 145.893 111.808 148.116V217.971C111.808 229.833 116.52 241.209 124.908 249.597C133.296 257.985 144.672 262.697 156.534 262.697C168.395 262.697 179.772 257.985 188.159 249.597C196.547 241.209 201.259 229.833 201.259 217.971V148.116C201.259 145.893 200.376 143.76 198.803 142.188C197.231 140.616 195.099 139.733 192.875 139.733ZM47.509 122.965H93.9671C89.4791 127.637 86.3255 133.428 84.8342 139.733H47.509C45.2854 139.733 43.1529 140.616 41.5806 142.188C40.0083 143.76 39.125 145.893 39.125 148.116V206.793C39.1235 212.402 40.5284 217.921 43.2111 222.847C45.8938 227.773 49.7687 231.947 54.4815 234.989C59.1942 238.03 64.5943 239.841 70.1878 240.257C75.7812 240.672 81.3896 239.678 86.4998 237.366C87.9866 242.844 90.1217 248.053 92.8045 252.927C85.1457 256.271 76.7746 257.654 68.4472 256.953C60.1198 256.251 52.0982 253.486 45.107 248.908C38.1157 244.329 32.375 238.082 28.4031 230.729C24.4313 223.376 22.3534 215.15 22.3572 206.793V148.116C22.3572 141.446 25.0071 135.048 29.724 130.331C34.4408 125.615 40.8383 122.965 47.509 122.965ZM265.491 122.965C272.162 122.965 278.559 125.615 283.276 130.331C287.993 135.048 290.643 141.446 290.643 148.116V206.804C290.646 215.156 288.57 223.378 284.601 230.727C280.632 238.076 274.896 244.321 267.91 248.899C260.924 253.477 252.909 256.243 244.586 256.948C236.264 257.653 227.897 256.275 220.24 252.938L220.866 251.798C223.258 247.259 225.192 242.441 226.578 237.389C231.686 239.687 237.288 240.669 242.872 240.246C248.457 239.823 253.847 238.008 258.55 234.967C263.253 231.926 267.119 227.755 269.796 222.836C272.473 217.916 273.875 212.405 273.875 206.804V148.116C273.875 145.895 272.993 143.764 271.423 142.192C269.854 140.62 267.724 139.736 265.502 139.733H228.244C226.75 133.426 223.592 127.636 219.1 122.965H265.491ZM156.5 33.5361C161.638 33.5361 166.726 34.5481 171.473 36.5143C176.219 38.4806 180.533 41.3625 184.166 44.9956C187.799 48.6287 190.681 52.9418 192.647 57.6886C194.613 62.4355 195.625 67.5232 195.625 72.6611C195.625 77.7991 194.613 82.8868 192.647 87.6336C190.681 92.3805 187.799 96.6936 184.166 100.327C180.533 103.96 176.219 106.842 171.473 108.808C166.726 110.774 161.638 111.786 156.5 111.786C146.123 111.786 136.172 107.664 128.834 100.327C121.497 92.9893 117.375 83.0377 117.375 72.6611C117.375 62.2845 121.497 52.3329 128.834 44.9956C136.172 37.6582 146.123 33.5361 156.5 33.5361ZM245.962 44.7147C250.366 44.7147 254.727 45.5821 258.796 47.2675C262.864 48.9528 266.561 51.423 269.675 54.5371C272.79 57.6512 275.26 61.3481 276.945 65.4169C278.63 69.4856 279.498 73.8464 279.498 78.2504C279.498 82.6544 278.63 87.0152 276.945 91.084C275.26 95.1527 272.79 98.8497 269.675 101.964C266.561 105.078 262.864 107.548 258.796 109.233C254.727 110.919 250.366 111.786 245.962 111.786C237.068 111.786 228.538 108.253 222.249 101.964C215.96 95.6746 212.426 87.1446 212.426 78.2504C212.426 69.3562 215.96 60.8263 222.249 54.5371C228.538 48.2479 237.068 44.7147 245.962 44.7147ZM67.0379 44.7147C71.4419 44.7147 75.8028 45.5821 79.8715 47.2675C83.9402 48.9528 87.6372 51.423 90.7513 54.5371C93.8653 57.6512 96.3356 61.3481 98.0209 65.4169C99.7062 69.4856 100.574 73.8464 100.574 78.2504C100.574 82.6544 99.7062 87.0152 98.0209 91.084C96.3356 95.1527 93.8653 98.8497 90.7513 101.964C87.6372 105.078 83.9402 107.548 79.8715 109.233C75.8028 110.919 71.4419 111.786 67.0379 111.786C58.1437 111.786 49.6138 108.253 43.3246 101.964C37.0354 95.6746 33.5022 87.1446 33.5022 78.2504C33.5022 69.3562 37.0354 60.8263 43.3246 54.5371C49.6138 48.2479 58.1437 44.7147 67.0379 44.7147ZM156.5 50.304C150.571 50.304 144.884 52.6595 140.691 56.8522C136.498 61.045 134.143 66.7317 134.143 72.6611C134.143 78.5906 136.498 84.2772 140.691 88.47C144.884 92.6628 150.571 95.0183 156.5 95.0183C162.43 95.0183 168.116 92.6628 172.309 88.47C176.502 84.2772 178.857 78.5906 178.857 72.6611C178.857 66.7317 176.502 61.045 172.309 56.8522C168.116 52.6595 162.43 50.304 156.5 50.304ZM245.962 61.4826C243.76 61.4826 241.58 61.9163 239.545 62.7589C237.511 63.6016 235.662 64.8367 234.105 66.3938C232.548 67.9508 231.313 69.7993 230.471 71.8336C229.628 73.868 229.194 76.0484 229.194 78.2504C229.194 80.4524 229.628 82.6328 230.471 84.6672C231.313 86.7016 232.548 88.55 234.105 90.1071C235.662 91.6641 237.511 92.8992 239.545 93.7419C241.58 94.5846 243.76 95.0183 245.962 95.0183C250.409 95.0183 254.674 93.2517 257.819 90.1071C260.963 86.9625 262.73 82.6975 262.73 78.2504C262.73 73.8033 260.963 69.5383 257.819 66.3938C254.674 63.2492 250.409 61.4826 245.962 61.4826ZM67.0379 61.4826C64.8359 61.4826 62.6555 61.9163 60.6212 62.7589C58.5868 63.6016 56.7383 64.8367 55.1813 66.3938C53.6242 67.9508 52.3891 69.7993 51.5465 71.8336C50.7038 73.868 50.2701 76.0484 50.2701 78.2504C50.2701 80.4524 50.7038 82.6328 51.5465 84.6672C52.3891 86.7016 53.6242 88.55 55.1813 90.1071C56.7383 91.6641 58.5868 92.8992 60.6212 93.7419C62.6555 94.5846 64.8359 95.0183 67.0379 95.0183C71.485 95.0183 75.75 93.2517 78.8946 90.1071C82.0392 86.9625 83.8058 82.6975 83.8058 78.2504C83.8058 73.8033 82.0392 69.5383 78.8946 66.3938C75.75 63.2492 71.485 61.4826 67.0379 61.4826Z" fill="black"/>
</svg>
