<svg width="205" height="205" viewBox="0 0 205 205" fill="none" xmlns="http://www.w3.org/2000/svg">
<path d="M171.056 44.9639L127.974 1.88184C126.772 0.680664 125.151 0 123.449 0H38.4062C34.8628 0 32 2.86279 32 6.40625V172.969C32 176.512 34.8628 179.375 38.4062 179.375H166.531C170.075 179.375 172.938 176.512 172.938 172.969V49.5083C172.938 47.8066 172.257 46.165 171.056 44.9639ZM120.486 14.7744L158.163 52.4512H120.486V14.7744ZM158.523 164.961H46.4141V14.4141H106.873V57.6562C106.873 59.8862 107.759 62.0249 109.336 63.6017C110.913 65.1786 113.051 66.0645 115.281 66.0645H158.523V164.961Z" fill="#3382FE"/>
<path d="M108.035 72.6016C108.035 71.7207 107.314 71 106.434 71H96.8242C95.9434 71 95.2227 71.7207 95.2227 72.6016V94.2227H73.6016C72.7207 94.2227 72 94.9434 72 95.8242V105.434C72 106.314 72.7207 107.035 73.6016 107.035H95.2227V128.656C95.2227 129.537 95.9434 130.258 96.8242 130.258H106.434C107.314 130.258 108.035 129.537 108.035 128.656V107.035H129.656C130.537 107.035 131.258 106.314 131.258 105.434V95.8242C131.258 94.9434 130.537 94.2227 129.656 94.2227H108.035V72.6016Z" fill="#3382FE"/>
</svg>
