<svg width="5" height="61" viewBox="0 0 5 61" fill="none" xmlns="http://www.w3.org/2000/svg">
<path d="M0.371094 2.14844C0.371094 1.58594 0.574219 1.11719 0.980469 0.742188C1.38672 0.359375 1.91016 0.167969 2.55078 0.167969C3.19922 0.167969 3.72266 0.359375 4.12109 0.742188C4.52734 1.11719 4.73047 1.58594 4.73047 2.14844C4.73047 2.71094 4.52734 3.18359 4.12109 3.56641C3.72266 3.94141 3.19922 4.12891 2.55078 4.12891C1.91016 4.12891 1.38672 3.94141 0.980469 3.56641C0.574219 3.18359 0.371094 2.71094 0.371094 2.14844ZM0.371094 30.1484C0.371094 29.5859 0.574219 29.1172 0.980469 28.7422C1.38672 28.3594 1.91016 28.168 2.55078 28.168C3.19922 28.168 3.72266 28.3594 4.12109 28.7422C4.52734 29.1172 4.73047 29.5859 4.73047 30.1484C4.73047 30.7109 4.52734 31.1836 4.12109 31.5664C3.72266 31.9414 3.19922 32.1289 2.55078 32.1289C1.91016 32.1289 1.38672 31.9414 0.980469 31.5664C0.574219 31.1836 0.371094 30.7109 0.371094 30.1484ZM0.371094 58.1484C0.371094 57.5859 0.574219 57.1172 0.980469 56.7422C1.38672 56.3594 1.91016 56.168 2.55078 56.168C3.19922 56.168 3.72266 56.3594 4.12109 56.7422C4.52734 57.1172 4.73047 57.5859 4.73047 58.1484C4.73047 58.7109 4.52734 59.1836 4.12109 59.5664C3.72266 59.9414 3.19922 60.1289 2.55078 60.1289C1.91016 60.1289 1.38672 59.9414 0.980469 59.5664C0.574219 59.1836 0.371094 58.7109 0.371094 58.1484Z" fill="black"/>
</svg>
