<svg width="37" height="37" viewBox="0 0 37 37" fill="none" xmlns="http://www.w3.org/2000/svg">
<path fill-rule="evenodd" clip-rule="evenodd" d="M11.177 15.4167C11.177 13.4745 11.9485 11.6119 13.3218 10.2386C14.6951 8.86527 16.5578 8.09375 18.4999 8.09375C20.4421 8.09375 22.3047 8.86527 23.678 10.2386C25.0513 11.6119 25.8228 13.4745 25.8228 15.4167C25.8228 17.3588 25.0513 19.2214 23.678 20.5948C22.3047 21.9681 20.4421 22.7396 18.4999 22.7396C16.5578 22.7396 14.6951 21.9681 13.3218 20.5948C11.9485 19.2214 11.177 17.3588 11.177 15.4167ZM18.4999 10.4062C17.1711 10.4062 15.8967 10.9341 14.957 11.8738C14.0174 12.8134 13.4895 14.0878 13.4895 15.4167C13.4895 16.7455 14.0174 18.0199 14.957 18.9596C15.8967 19.8992 17.1711 20.4271 18.4999 20.4271C19.8288 20.4271 21.1032 19.8992 22.0428 18.9596C22.9825 18.0199 23.5103 16.7455 23.5103 15.4167C23.5103 14.0878 22.9825 12.8134 22.0428 11.8738C21.1032 10.9341 19.8288 10.4062 18.4999 10.4062Z" fill="#FF0000"/>
<path fill-rule="evenodd" clip-rule="evenodd" d="M5.43284 13.6542C5.69636 10.458 7.15215 7.47782 9.51119 5.30528C11.8702 3.13274 14.96 1.92675 18.167 1.92676H18.833C22.04 1.92675 25.1298 3.13274 27.4888 5.30528C29.8479 7.47782 31.3037 10.458 31.5672 13.6542C31.8604 17.2144 30.7606 20.7494 28.4993 23.5147L21.1101 32.5504C20.7938 32.9371 20.3956 33.2487 19.9442 33.4627C19.4928 33.6767 18.9995 33.7877 18.5 33.7877C18.0005 33.7877 17.5072 33.6767 17.0558 33.4627C16.6044 33.2487 16.2062 32.9371 15.89 32.5504L8.50076 23.5147C6.23931 20.7494 5.13944 17.2144 5.43284 13.6542ZM18.167 4.23926C15.5408 4.23965 13.0107 5.22751 11.0789 7.00673C9.14719 8.78596 7.95507 11.2265 7.73918 13.8438C7.49498 16.8067 8.41024 19.7487 10.2922 22.0501L17.6814 31.0874C17.7807 31.209 17.9058 31.3069 18.0477 31.3742C18.1895 31.4415 18.3446 31.4764 18.5016 31.4764C18.6585 31.4764 18.8136 31.4415 18.9554 31.3742C19.0973 31.3069 19.2224 31.209 19.3217 31.0874L26.7109 22.0501C28.5918 19.7482 29.5059 16.8063 29.2608 13.8438C29.0449 11.2262 27.8526 8.78548 25.9205 7.00621C23.9885 5.22695 21.458 4.23927 18.8315 4.23926H18.167Z" fill="#FF0000"/>
</svg>
