<svg width="201" height="201" viewBox="0 0 201 201" fill="none" xmlns="http://www.w3.org/2000/svg">
<path d="M67 125.625H83.75V100.5H113.062V121.438L142.375 92.125L113.062 62.8125V83.75H75.375C73.0021 83.75 71.0144 84.554 69.412 86.162C67.8096 87.77 67.0056 89.7577 67 92.125V125.625ZM100.5 184.25C98.4062 184.25 96.3488 183.831 94.3276 182.994C92.3065 182.156 90.4556 180.9 88.775 179.225L21.775 112.225C20.1 110.55 18.8438 108.699 18.0063 106.672C17.1688 104.646 16.75 102.588 16.75 100.5C16.75 98.4062 17.1688 96.3488 18.0063 94.3276C18.8438 92.3065 20.1 90.4556 21.775 88.775L88.775 21.775C90.45 20.1 92.3009 18.8438 94.3276 18.0063C96.3544 17.1688 98.4118 16.75 100.5 16.75C102.594 16.75 104.654 17.1688 106.681 18.0063C108.707 18.8438 110.556 20.1 112.225 21.775L179.225 88.775C180.9 90.45 182.156 92.3009 182.994 94.3276C183.831 96.3544 184.25 98.4118 184.25 100.5C184.25 102.594 183.831 104.654 182.994 106.681C182.156 108.707 180.9 110.556 179.225 112.225L112.225 179.225C110.55 180.9 108.699 182.156 106.672 182.994C104.646 183.831 102.588 184.25 100.5 184.25ZM67 134L100.5 167.5L167.5 100.5L100.5 33.5L33.5 100.5L67 134Z" fill="black"/>
</svg>
