<svg width="99" height="95" viewBox="0 0 99 95" fill="none" xmlns="http://www.w3.org/2000/svg">
<path d="M68.079 39.1278C66.3822 39.1278 64.9248 38.5578 63.7065 37.4178C62.4855 36.2831 61.875 34.8739 61.875 33.1903V15.833C61.875 14.1494 62.48 12.7389 63.69 11.6015C64.9 10.4642 66.3575 9.89551 68.0625 9.89551C69.817 9.89551 71.2882 10.4642 72.4762 11.6015C73.6587 12.7415 74.25 14.152 74.25 15.833V33.1903C74.25 34.8713 73.6587 36.2804 72.4762 37.4178C71.2937 38.5552 69.828 39.1252 68.079 39.1278ZM16.5 83.1247V11.8747H51.5625V15.833H20.625V79.1663H66V70.1809H70.125V83.1247H16.5ZM30.9375 70.1809V65.3122H55.6875V70.1809H30.9375ZM30.9375 58.3059V54.3476H47.4375V58.3059H30.9375ZM70.125 61.3538H66V51.367C60.918 50.8999 56.5538 48.9629 52.9073 45.5561C49.2608 42.1467 47.4375 38.0247 47.4375 33.1903H51.5625C51.5625 37.27 53.2097 40.6742 56.5042 43.4028C59.7987 46.134 63.6487 47.4997 68.0542 47.4997C72.5367 47.4997 76.4087 46.134 79.6702 43.4028C82.9317 40.6742 84.5625 37.27 84.5625 33.1903H88.6875C88.6875 38.0775 86.8821 42.2113 83.2714 45.5918C79.6579 48.9748 75.2757 50.8999 70.125 51.367V61.3538Z" fill="black"/>
</svg>
