<svg width="213" height="213" viewBox="0 0 213 213" fill="none" xmlns="http://www.w3.org/2000/svg">
<path d="M110.316 36.3878C108.875 35.7643 107.294 35.5343 105.735 35.7214C104.176 35.9085 102.694 36.506 101.441 37.4528L59.0188 71.0003H26.625C24.2712 71.0003 22.0138 71.9354 20.3494 73.5997C18.685 75.2641 17.75 77.5215 17.75 79.8753V133.125C17.75 135.479 18.685 137.737 20.3494 139.401C22.0138 141.065 24.2712 142 26.625 142H59.0188L100.998 175.548C102.559 176.801 104.498 177.489 106.5 177.5C107.826 177.522 109.136 177.217 110.316 176.613C111.827 175.894 113.103 174.762 113.998 173.349C114.893 171.936 115.37 170.298 115.375 168.625V44.3753C115.37 42.7025 114.893 41.0651 113.998 39.6519C113.103 38.2386 111.827 37.1071 110.316 36.3878ZM97.625 150.165L67.6275 126.203C66.066 124.95 64.1269 124.262 62.125 124.25H35.5V88.7503H62.125C64.1269 88.7387 66.066 88.0506 67.6275 86.7978L97.625 62.8353V150.165ZM174.482 56.2678C172.811 54.5966 170.545 53.6578 168.181 53.6578C165.818 53.6578 163.551 54.5966 161.88 56.2678C160.209 57.939 159.27 60.2056 159.27 62.5691C159.27 64.9325 160.209 67.1991 161.88 68.8703C167.106 74.0883 171.19 80.3362 173.871 87.2172C176.553 94.0981 177.774 101.462 177.457 108.84C177.14 116.218 175.291 123.45 172.029 130.075C168.767 136.701 164.162 142.575 158.508 147.325C157.134 148.5 156.152 150.065 155.692 151.812C155.232 153.56 155.317 155.406 155.934 157.104C156.552 158.802 157.673 160.271 159.148 161.315C160.622 162.359 162.381 162.927 164.188 162.945C166.261 162.949 168.271 162.227 169.867 160.904C177.42 154.579 183.573 146.751 187.936 137.919C192.299 129.087 194.776 119.443 195.21 109.602C195.644 99.7604 194.025 89.9363 190.457 80.7543C186.889 71.5723 181.448 63.2334 174.482 56.2678ZM149.366 81.3841C148.539 80.5566 147.556 79.9002 146.475 79.4523C145.394 79.0045 144.235 78.774 143.065 78.774C141.895 78.774 140.736 79.0045 139.655 79.4523C138.574 79.9002 137.591 80.5566 136.764 81.3841C135.936 82.2116 135.28 83.1939 134.832 84.2751C134.384 85.3563 134.154 86.5151 134.154 87.6853C134.154 88.8556 134.384 90.0144 134.832 91.0955C135.28 92.1767 135.936 93.1591 136.764 93.9866C140.097 97.3 141.98 101.8 142 106.5C142.002 109.086 141.439 111.641 140.351 113.986C139.262 116.332 137.675 118.411 135.699 120.079C134.8 120.824 134.057 121.739 133.513 122.772C132.968 123.804 132.633 124.934 132.526 126.097C132.418 127.259 132.542 128.431 132.888 129.546C133.235 130.661 133.798 131.696 134.545 132.593C135.296 133.485 136.216 134.22 137.252 134.757C138.288 135.293 139.419 135.62 140.581 135.719C141.743 135.818 142.914 135.687 144.025 135.333C145.137 134.98 146.167 134.41 147.059 133.658C151.027 130.331 154.219 126.176 156.411 121.484C158.604 116.793 159.743 111.679 159.75 106.5C159.7 97.0938 155.973 88.0798 149.366 81.3841Z" fill="black"/>
</svg>
